<?xml version="1.0" encoding="UTF-8" standalone="no"?>
<!-- Created with Inkscape (http://www.inkscape.org/) -->

<svg
   viewBox="0 0 476.24999 158.75"
   version="1.1"
   id="svg5"
   xmlns="http://www.w3.org/2000/svg"
   xmlns:svg="http://www.w3.org/2000/svg">
  <defs
     id="defs2" />
  <g
     id="layer1">
    <path
       id="rect846-1"
       style="fill:#ffffff;stroke:#000000;stroke-width:0.176496;stroke-linecap:round;stroke-miterlimit:4;stroke-dasharray:none;stroke-opacity:0"
       d="M 420.56052,46.788165 V 80.73636 c 0,17.535404 -14.1171,31.65249 -31.6525,31.65249 H 94.037875 c 4.003677,8.18334 12.398645,13.79527 22.155505,13.79527 h 296.67123 c 13.66139,0 24.65944,-10.99805 24.65944,-24.65945 V 70.2259 c 0,-10.970628 -7.09505,-20.218286 -16.96353,-23.437735 z" />
    <rect
       style="fill:#ffffff;stroke:none;stroke-width:7.81825;stroke-linecap:round;stroke-miterlimit:4;stroke-dasharray:none;stroke-opacity:0"
       id="rect846"
       width="389.72617"
       height="90.808548"
       x="24.025528"
       y="15.685355"
       ry="27.77673" />
    <path
       style="fill:#ffffff;fill-opacity:1;stroke:none;stroke-width:0.2275px;stroke-linecap:butt;stroke-linejoin:miter;stroke-opacity:1"
       d="m 55.37886,105.75263 h 29.27672 c 0,0 -6.508699,23.0355 -32.697684,38.70982 10.963805,-27.06418 11.992875,-27.66188 3.420964,-38.70982 z"
       id="path1824" />
    <path
       style="fill:#ffffff;fill-opacity:1;stroke:none;stroke-width:0.163003px;stroke-linecap:butt;stroke-linejoin:miter;stroke-opacity:1"
       d="m 406.83649,124.31038 h -20.97662 c 0,0 4.66345,16.50481 23.42772,27.73538 -7.85551,-19.39134 -8.59283,-19.81959 -2.4511,-27.73538 z"
       id="path1824-9" />
    <g
       style="overflow:visible"
       id="g2444"
       transform="matrix(0.11327627,0,0,0.11327627,198.62404,21.225797)">
      <g
         id="g2423">
        <path
           fill-rule="evenodd"
           clip-rule="evenodd"
           fill="#0074bd"
           d="m 117.151,349.592 c 0,0 -17.265,10.049 12.301,13.44 35.824,4.09 54.13,3.501 93.596,-3.959 0,0 10.397,6.504 24.892,12.137 -88.501,37.917 -200.296,-2.197 -130.789,-21.618 z"
           id="path2397" />
        <path
           fill-rule="evenodd"
           clip-rule="evenodd"
           fill="#0074bd"
           d="m 106.331,300.104 c 0,0 -19.367,14.339 10.221,17.397 38.271,3.951 68.483,4.275 120.792,-5.792 0,0 7.218,7.332 18.585,11.339 -106.986,31.294 -226.147,2.462 -149.598,-22.944 z"
           id="path2399" />
        <path
           fill-rule="evenodd"
           clip-rule="evenodd"
           fill="#ea2d2e"
           d="m 197.494,216.145 c 21.818,25.115 -5.721,47.697 -5.721,47.697 0,0 55.367,-28.577 29.945,-64.38 -23.752,-33.373 -41.962,-49.951 56.623,-107.124 10e-4,0 -154.754,38.641 -80.847,123.807 z"
           id="path2401" />
        <path
           fill-rule="evenodd"
           clip-rule="evenodd"
           fill="#0074bd"
           d="m 314.542,386.202 c 0,0 12.781,10.536 -14.077,18.684 -51.071,15.469 -212.604,20.135 -257.47,0.619 -16.117,-7.02 14.121,-16.75 23.635,-18.805 9.92,-2.146 15.584,-1.754 15.584,-1.754 -17.937,-12.631 -115.935,24.807 -49.772,35.544 180.429,29.246 328.895,-13.173 282.1,-34.288 z"
           id="path2403" />
        <path
           fill-rule="evenodd"
           clip-rule="evenodd"
           fill="#0074bd"
           d="m 125.46,248.822 c 0,0 -82.155,19.519 -29.092,26.613 22.412,2.999 67.063,2.309 108.685,-1.183 34.006,-2.854 68.133,-8.958 68.133,-8.958 0,0 -11.982,5.14 -20.657,11.06 -83.444,21.947 -244.612,11.726 -198.207,-10.712 39.227,-18.977 71.138,-16.82 71.138,-16.82 z"
           id="path2405" />
        <path
           fill-rule="evenodd"
           clip-rule="evenodd"
           fill="#0074bd"
           d="m 272.846,331.198 c 84.818,-44.063 45.597,-86.412 18.223,-80.708 -6.694,1.397 -9.697,2.607 -9.697,2.607 0,0 2.494,-3.907 7.243,-5.588 54.155,-19.03 95.794,56.146 -17.464,85.919 -0.001,0 1.302,-1.18 1.695,-2.23 z"
           id="path2407" />
        <path
           fill-rule="evenodd"
           clip-rule="evenodd"
           fill="#ea2d2e"
           d="m 221.719,0 c 0,0 46.963,46.99 -44.557,119.227 -73.393,57.969 -16.734,91.009 -0.026,128.778 C 134.291,209.352 102.865,175.321 123.944,143.653 154.898,97.174 240.663,74.632 221.719,0 Z"
           id="path2409" />
        <path
           fill-rule="evenodd"
           clip-rule="evenodd"
           fill="#0074bd"
           d="m 133.799,450.637 c 81.397,5.204 206.426,-2.896 209.385,-41.415 0,0 -5.688,14.602 -67.276,26.188 -69.481,13.081 -155.197,11.558 -206.016,3.167 0,0 10.411,8.617 63.907,12.06 z"
           id="path2411" />
        <path
           fill-rule="evenodd"
           clip-rule="evenodd"
           fill="#ea2d2e"
           d="m 339.426,519.716 h -2.479 v -1.385 h 6.676 v 1.385 h -2.469 v 6.928 h -1.729 v -6.928 z m 13.33,0.351 h -0.032 l -2.461,6.576 h -1.132 l -2.446,-6.576 h -0.025 v 6.576 h -1.638 v -8.313 h 2.402 l 2.264,5.885 2.271,-5.885 h 2.388 v 8.313 h -1.59 v -6.576 z"
           id="path2413" />
        <path
           fill-rule="evenodd"
           clip-rule="evenodd"
           fill="#ea2d2e"
           d="m 120.461,597.813 c -7.676,6.654 -15.793,10.396 -23.079,10.396 -10.378,0 -16.007,-6.236 -16.007,-16.216 0,-10.803 6.027,-18.71 30.163,-18.71 h 8.923 z m 21.189,23.903 V 547.72 c 0,-18.915 -10.787,-31.396 -36.782,-31.396 -15.168,0 -28.467,3.75 -39.278,8.525 l 3.111,13.106 c 8.515,-3.127 19.526,-6.031 30.337,-6.031 14.978,0 21.423,6.031 21.423,18.505 v 9.356 h -7.485 c -36.383,0 -52.798,14.11 -52.798,35.336 0,18.285 10.819,28.682 31.185,28.682 13.088,0 22.87,-5.405 32.001,-13.315 l 1.663,11.228 z"
           id="path2415" />
        <path
           fill-rule="evenodd"
           clip-rule="evenodd"
           fill="#ea2d2e"
           d="M 212.362,621.716 H 185.939 L 154.132,518.214 h 23.077 l 19.743,63.6 4.391,19.109 c 9.965,-27.639 17.032,-55.701 20.566,-82.709 h 22.445 c -6.002,34.08 -16.831,71.492 -31.992,103.502 z"
           id="path2417" />
        <path
           fill-rule="evenodd"
           clip-rule="evenodd"
           fill="#ea2d2e"
           d="m 313.755,597.813 c -7.701,6.654 -15.82,10.396 -23.086,10.396 -10.382,0 -16.011,-6.236 -16.011,-16.216 0,-10.803 6.039,-18.71 30.154,-18.71 h 8.942 v 24.53 z m 21.196,23.903 V 547.72 c 0,-18.915 -10.818,-31.396 -36.789,-31.396 -15.188,0 -28.484,3.75 -39.295,8.525 l 3.116,13.106 c 8.519,-3.127 19.545,-6.031 30.355,-6.031 14.96,0 21.416,6.031 21.416,18.505 v 9.356 h -7.485 c -36.391,0 -52.801,14.11 -52.801,35.336 0,18.285 10.804,28.682 31.169,28.682 13.099,0 22.862,-5.405 32.018,-13.315 l 1.674,11.228 z"
           id="path2419" />
        <path
           fill-rule="evenodd"
           clip-rule="evenodd"
           fill="#ea2d2e"
           d="m 36.941,639.306 c -6.037,8.821 -15.8,15.809 -26.479,19.749 L 0,646.731 c 8.135,-4.178 15.103,-10.912 18.345,-17.182 2.796,-5.589 3.96,-12.773 3.96,-29.971 v -118.18 h 22.519 v 116.551 c 0,23.001 -1.836,32.3 -7.883,41.357 z"
           id="path2421" />
      </g>
    </g>
    <g
       id="g2523"
       transform="matrix(0.2651665,0,0,0.2651665,274.40017,34.559924)">
      <g
         transform="translate(0.738281,121.593)"
         style="fill:#00618a;fill-rule:nonzero;stroke:none;stroke-width:0.87088;stroke-linecap:butt;stroke-linejoin:miter;stroke-dasharray:none"
         id="g2471">
        <path
           d="m 0,62.235 c 0,0 12.8418,0 12.8418,0 0,0 0,-50.711 0,-50.711 0,0 19.8808,44.208 19.8808,44.208 2.3457,5.351 5.5567,7.244 11.8536,7.244 6.2978,0 9.3847,-1.893 11.7314,-7.244 0,0 19.8799,-44.208 19.8799,-44.208 0,0 0,50.711 0,50.711 0,0 12.8428,0 12.8428,0 0,0 0,-50.628 0,-50.628 0,-4.939 -1.9766,-7.327 -6.0508,-8.561 C 73.2246,0 66.6797,2.634 63.7158,9.22 c 0,0 -19.5098,43.63 -19.5098,43.63 0,0 -18.8925,-43.63 -18.8925,-43.63 C 22.4736,2.634 15.8056,0 6.05078,3.046 1.97559,4.28 0,6.668 0,11.607 c 0,0 0,50.628 0,50.628 z"
           id="path2469" />
      </g>
      <g
         transform="translate(100.444,142.416)"
         style="fill:#00618a;fill-rule:nonzero;stroke:none;stroke-width:0.87088;stroke-linecap:butt;stroke-linejoin:miter;stroke-dasharray:none"
         id="g2475">
        <path
           d="m 0.002,0.136 c 0,0 12.838,0 12.838,0 0,0 0,27.938 0,27.938 -0.12,1.518 0.487,5.08 7.522,5.191 3.589,0.056 27.7,0 27.925,0 0,0 0,-33.265 0,-33.265 0,0 12.868,0 12.868,0 0.059,0 -0.013,45.364 -0.012,45.557 0.071,11.188 -13.882,13.618 -20.313,13.806 0,0 -40.549,0 -40.549,0 0,0 0,-8.639 0,-8.639 0.071,0 40.519,0.008 40.621,-0.002 8.265,-0.873 7.289,-4.981 7.288,-6.364 0,0 0,-3.368 0,-3.368 0,0 -27.295,0 -27.295,0 C 8.196,40.873 0.109,35.331 0.009,28.955 0,28.364 0.283,0.415 0.002,0.136 Z"
           id="path2473" />
      </g>
      <g
         transform="translate(171.496,124.557)"
         style="fill:#e48e00;fill-rule:nonzero;stroke:none;stroke-width:0.87088;stroke-linecap:butt;stroke-linejoin:miter;stroke-dasharray:none"
         id="g2479">
        <path
           d="m 0,59.271 c 0,0 36.92,0 36.92,0 4.322,0 8.521,-0.905 11.855,-2.47 5.556,-2.551 8.273,-6.008 8.273,-10.537 0,0 0,-9.384 0,-9.384 0,-3.705 -3.087,-7.163 -9.138,-9.467 -3.211,-1.236 -7.162,-1.894 -10.99,-1.894 0,0 -15.559,0 -15.559,0 -5.185,0 -7.655,-1.564 -8.272,-5.021 -0.124,-0.412 -0.124,-0.742 -0.124,-1.153 0,0 0,-5.844 0,-5.844 0,-0.33 0,-0.66 0.124,-1.071 0.617,-2.634 1.976,-3.376 6.544,-3.787 0.371,0 0.864,-0.083 1.235,-0.083 0,0 36.674,0 36.674,0 0,0 0,-8.56 0,-8.56 0,0 -36.057,0 -36.057,0 C 16.299,0 13.582,0.329 11.113,1.069 3.457,3.457 0.123,7.244 0.123,13.83 c 0,0 0,7.491 0,7.491 0,5.763 6.545,10.702 17.534,11.854 1.236,0.082 2.47,0.164 3.704,0.164 0,0 13.336,0 13.336,0 0.495,0 0.989,0 1.359,0.083 4.075,0.33 5.803,1.07 7.039,2.552 0.74,0.74 0.987,1.482 0.987,2.305 0,0 0,7.491 0,7.491 0,0.906 -0.617,2.059 -1.851,3.046 -1.112,0.988 -2.964,1.647 -5.434,1.812 -0.494,0 -0.864,0.082 -1.358,0.082 0,0 -35.439,0 -35.439,0 0,0 0,8.561 0,8.561 z"
           id="path2477" />
      </g>
      <g
         transform="translate(308.656,124.557)"
         style="fill:#e48e00;fill-rule:nonzero;stroke:none;stroke-width:0.87088;stroke-linecap:butt;stroke-linejoin:miter;stroke-dasharray:none"
         id="g2483">
        <path
           d="m 0,44.371 c 0,8.808 6.544,13.748 19.757,14.736 1.234,0.082 2.47,0.164 3.704,0.164 0,0 33.464,0 33.464,0 0,0 0,-8.561 0,-8.561 0,0 -33.711,0 -33.711,0 -7.532,0 -10.372,-1.894 -10.372,-6.421 0,0 0,-44.289 0,-44.289 C 12.842,0 0,0 0,0 0,0 0,44.371 0,44.371 Z"
           id="path2481" />
      </g>
      <g
         transform="translate(236.74,124.666)"
         style="fill:#e48e00;fill-rule:nonzero;stroke:none;stroke-width:0.87088;stroke-linecap:butt;stroke-linejoin:miter;stroke-dasharray:none"
         id="g2487">
        <path
           d="m 0,44.711 c 0,0 0,-30.522 0,-30.522 C 0,6.435 5.445,1.732 16.209,0.247 17.323,0.083 18.561,0 19.674,0 c 0,0 24.376,0 24.376,0 1.237,0 2.352,0.083 3.589,0.247 10.765,1.485 16.209,6.188 16.209,13.942 0,0 0,30.522 0,30.522 0,6.291 -2.312,9.658 -7.641,11.852 0,0 12.65,11.418 12.65,11.418 0,0 -14.911,0 -14.911,0 0,0 -10.234,-9.238 -10.234,-9.238 0,0 -10.303,0.653 -10.303,0.653 0,0 -13.735,0 -13.735,0 -2.351,0 -4.825,-0.331 -7.548,-1.073 C 3.96,56.096 0,51.806 0,44.711 Z m 13.861,-0.742 c 0,0.413 0.123,0.825 0.247,1.32 0.742,3.547 4.083,5.527 9.156,5.527 0,0 11.667,0 11.667,0 0,0 -10.717,-9.675 -10.717,-9.675 0,0 14.911,0 14.911,0 0,0 9.347,8.438 9.347,8.438 1.722,-0.918 2.856,-2.322 3.252,-4.125 0.123,-0.412 0.123,-0.825 0.123,-1.237 0,0 0,-29.285 0,-29.285 0,-0.33 0,-0.743 -0.123,-1.156 C 50.981,10.477 47.64,8.58 42.691,8.58 c 0,0 -19.427,0 -19.427,0 -5.691,0 -9.403,2.475 -9.403,6.352 0,0 0,29.037 0,29.037 z"
           id="path2485" />
      </g>
      <g
         transform="translate(241.59,-4.64258)"
         style="fill:#00618a;fill-rule:nonzero;stroke:none;stroke-width:0.87088;stroke-linecap:butt;stroke-linejoin:miter;stroke-dasharray:none"
         id="g2491">
        <path
           d="m 135.289,114.997 c -7.894,-0.214 -13.924,0.52 -19.079,2.694 -1.465,0.618 -3.801,0.634 -4.04,2.47 0.805,0.844 0.93,2.104 1.57,3.142 1.231,1.992 3.309,4.661 5.163,6.061 2.026,1.529 4.114,3.165 6.286,4.489 3.863,2.356 8.176,3.701 11.896,6.061 2.192,1.391 4.37,3.143 6.509,4.713 1.057,0.776 1.768,1.983 3.142,2.469 0,-0.074 0,-0.149 0,-0.224 -0.722,-0.919 -0.908,-2.183 -1.571,-3.143 -0.972,-0.972 -1.945,-1.945 -2.918,-2.918 -2.853,-3.787 -6.475,-7.113 -10.325,-9.876 -3.07,-2.204 -9.942,-5.181 -11.223,-8.754 -0.075,-0.075 -0.149,-0.15 -0.225,-0.225 2.177,-0.245 4.726,-1.033 6.735,-1.571 3.375,-0.905 6.391,-0.671 9.876,-1.571 1.571,-0.449 3.142,-0.899 4.714,-1.347 0,-0.3 0,-0.598 0,-0.898 -1.762,-1.808 -3.018,-4.2 -4.939,-5.836 -5.026,-4.28 -10.512,-8.556 -16.161,-12.1216 -3.133,-1.9776 -7.005,-3.2627 -10.325,-4.9385 -1.117,-0.5635 -3.079,-0.8565 -3.817,-1.7959 -1.744,-2.2237 -2.694,-5.042 -4.039,-7.6319 C 99.7,78.8194 96.933,72.8936 94.437,67.1856 92.734,63.293 91.622,59.4541 89.499,55.9619 79.307,39.2051 68.336,29.0908 51.341,19.1494 47.725,17.0352 43.371,16.2002 38.77,15.1094 36.302,14.96 33.832,14.8096 31.363,14.6602 29.856,14.0303 28.288,12.1865 26.874,11.293 21.244,7.73633 6.803,0 2.633,10.1709 0,16.5908 6.568,22.8555 8.917,26.1084 c 1.649,2.2822 3.76,4.8408 4.938,7.4072 0.775,1.6866 0.909,3.378 1.572,5.1631 1.632,4.3965 3.051,9.1797 5.162,13.2432 1.067,2.0557 2.243,4.2217 3.592,6.0605 0.827,1.128 2.244,1.625 2.468,3.3672 -1.386,1.9395 -1.465,4.9502 -2.244,7.4073 -3.508,11.0615 -2.185,24.8105 2.918,32.9971 1.566,2.513 5.254,7.903 10.325,5.836 4.436,-1.807 3.445,-7.406 4.714,-12.3458 0.287,-1.1202 0.111,-1.9434 0.673,-2.6934 0,0.0742 0,0.1494 0,0.2246 1.347,2.6934 2.694,5.3867 4.041,8.0796 2.99,4.816 8.297,9.849 12.794,13.245 2.332,1.761 4.168,4.806 7.183,5.836 0,-0.075 0,-0.149 0,-0.225 -0.076,0 -0.15,0 -0.225,0 -0.584,-0.911 -1.498,-1.288 -2.244,-2.02 -1.757,-1.722 -3.71,-3.863 -5.163,-5.836 -4.09,-5.553 -7.705,-11.631 -10.998,-17.9575 -1.573,-3.0205 -2.94,-6.3535 -4.266,-9.4278 -0.511,-1.1855 -0.505,-2.9775 -1.57,-3.5917 -1.452,2.2529 -3.591,4.0742 -4.714,6.7343 -1.796,4.252 -2.028,9.4375 -2.693,14.8147 -0.394,0.141 -0.219,0.044 -0.45,0.224 -3.126,-0.754 -4.225,-3.9723 -5.386,-6.733 -2.939,-6.9824 -3.485,-18.2256 -0.899,-26.2627 0.669,-2.0791 3.693,-8.6289 2.469,-10.5498 -0.584,-1.917 -2.512,-3.0254 -3.591,-4.4902 -1.335,-1.8106 -2.668,-4.1944 -3.592,-6.2852 -2.405,-5.4443 -3.528,-11.5557 -6.06,-17.0586 -1.21,-2.6309 -3.257,-5.293 -4.938,-7.6318 C 10.872,21.0489 8.788,19.1406 7.346,16.0069 6.833,14.8936 6.136,13.1113 6.897,11.9668 7.139,11.1943 7.48,10.8721 8.244,10.6201 c 1.302,-1.00389 4.928,0.334 6.284,0.8975 3.6,1.4951 6.604,2.9189 9.653,4.9385 1.464,0.9707 2.944,2.8476 4.713,3.3672 0.673,0 1.347,0 2.02,0 3.16,0.7265 6.7,0.2256 9.652,1.122 5.218,1.586 9.894,4.0528 14.141,6.7344 12.938,8.169 23.516,19.7979 30.752,33.6699 1.164,2.2334 1.668,4.3653 2.693,6.7344 2.069,4.7774 4.675,9.6934 6.733,14.3652 2.054,4.6612 4.056,9.3653 6.959,13.2442 1.527,2.039 7.422,3.1328 10.101,4.2646 1.878,0.794 4.955,1.621 6.734,2.693 3.398,2.05 6.69,4.49 9.877,6.735 1.593,1.122 6.489,3.583 6.733,5.611 z"
           id="path2489" />
      </g>
      <g
         transform="translate(272.504,24.8027)"
         style="fill:#00618a;fill-rule:evenodd;stroke:none;stroke-width:0.87088;stroke-linecap:butt;stroke-linejoin:miter;stroke-dasharray:none"
         id="g2495">
        <path
           d="M 4.041,0.0303 C 2.395,0 1.231,0.21 0,0.4786 c 0,0.0751 0,0.1503 0,0.2246 0.075,0 0.15,0 0.225,0 C 1.01,2.3164 2.396,3.3545 3.367,4.7442 4.115,6.3155 4.863,7.8868 5.612,9.4571 5.686,9.3828 5.762,9.3077 5.836,9.2334 7.226,8.2539 7.863,6.6866 7.856,4.295 7.299,3.709 7.217,2.9737 6.734,2.2744 6.092,1.3428 4.85,0.8135 4.041,0.0303 Z"
           id="path2493" />
      </g>
      <g
         transform="translate(371.609,165.56)"
         style="fill:#e48e00;fill-rule:evenodd;stroke:none;stroke-width:1;stroke-linecap:butt;stroke-linejoin:miter;stroke-dasharray:none"
         id="g2499">
        <path
           d="m 0,9.463 c 0,5.654 4.467,9.464 9.464,9.464 4.997,0 9.464,-3.81 9.464,-9.464 C 18.928,3.81 14.461,0 9.464,0 4.467,0 0,3.81 0,9.463 Z m 16.808,0 c 0,4.29 -3.28,7.496 -7.344,7.496 -4.113,0 -7.344,-3.206 -7.344,-7.496 0,-4.29 3.231,-7.496 7.344,-7.496 4.064,0 7.344,3.206 7.344,7.496 z m -4.794,5.401 c 0,0 2.119,0 2.119,0 0,0 -3.103,-4.744 -3.103,-4.744 1.665,-0.177 2.926,-0.985 2.926,-2.953 0,-2.196 -1.387,-3.104 -4.062,-3.104 0,0 -4.215,0 -4.215,0 0,0 0,10.801 0,10.801 0,0 1.817,0 1.817,0 0,0 0,-4.669 0,-4.669 0,0 1.691,0 1.691,0 0,0 2.827,4.669 2.827,4.669 z M 7.496,8.681 c 0,0 0,-3.104 0,-3.104 0,0 2.094,0 2.094,0 1.086,0 2.398,0.202 2.398,1.464 0,1.513 -1.186,1.64 -2.549,1.64 0,0 -1.943,0 -1.943,0 z"
           id="path2497" />
      </g>
    </g>
    <g
       id="g2623"
       transform="matrix(0.26725589,0,0,0.26725589,58.8662,22.272476)">
      <polygon
         fill="#fbbd16"
         points="288.753,145.616 247.914,126.278 234.982,186.663 221.937,113.84 181.323,94.391 181.323,221.04 208.096,234.496 208.096,158.167 222.729,240.603 246.553,252.477 261.867,183.949 261.867,258.923 288.753,272.151 "
         id="polygon2525" />
      <polygon
         fill="#452e7f"
         points="335.152,123.418 335.152,215.238 394.142,184.709 394.369,219.31 292.611,272.796 292.496,145.583 "
         id="polygon2527" />
      <path
         fill="#962444"
         d="m 275.298,12.158 -30.163,26.669 c 0,0 58.851,30.25 66,33.825 7.15,3.574 17.325,10.449 6.325,20.625 -11,10.175 -23.1,8.8 -31.35,4.675 -8.25,-4.125 -69.3,-34.925 -69.3,-34.925 l -31.074,26.399 c 0,0 59.949,30.525 69.85,35.75 9.9,5.226 46.75,18.15 81.675,-9.075 34.925,-27.225 29.976,-37.125 29.976,-39.05 0,-1.925 -0.825,-12.1 -6.875,-18.425 -6.051,-6.325 -23.65,-15.4 -31.075,-19.25 -7.425,-3.85 -53.989,-27.218 -53.989,-27.218 z"
         id="path2529" />
      <path
         fill="#4a2469"
         d="m 50.154,100.832 v 18.721 c 0,2.123 -0.057,3.614 -0.17,4.473 -0.113,0.859 -0.448,1.741 -1.006,2.646 -0.557,0.906 -1.29,1.594 -2.202,2.06 -0.911,0.468 -1.985,0.7 -3.222,0.7 -1.369,0 -2.577,-0.275 -3.626,-0.829 -1.048,-0.555 -1.831,-1.275 -2.352,-2.163 -0.519,-0.889 -0.825,-1.825 -0.92,-2.812 -0.095,-0.987 -0.141,-3.061 -0.141,-6.221 v -16.575 h 5.968 v 21.002 c 0,1.223 0.055,2.005 0.162,2.344 0.107,0.341 0.326,0.511 0.653,0.511 0.374,0 0.615,-0.188 0.725,-0.563 0.107,-0.375 0.161,-1.26 0.161,-2.655 v -20.639 z"
         id="path2531" />
      <path
         fill="#4a2469"
         d="m 69.866,100.832 v 28.007 h -5.237 l -3.104,-12.732 v 12.732 h -4.98 v -28.007 h 5.001 l 3.34,12.611 v -12.611 z"
         id="path2533" />
      <path
         fill="#4a2469"
         d="m 82.308,100.832 v 28.007 h -5.969 v -28.007 z"
         id="path2535" />
      <path
         fill="#4a2469"
         d="m 86.875,100.832 h 12.017 v 5.612 h -4.929 v 5.297 h 4.39 v 5.337 h -4.39 v 11.761 h -7.088 z"
         id="path2537" />
      <path
         fill="#4a2469"
         d="m 110.365,100.832 v 28.007 h -5.969 v -28.007 z"
         id="path2539" />
      <path
         fill="#4a2469"
         d="m 116.83,100.832 h 9.942 v 5.612 h -3.974 v 5.297 h 3.717 v 5.337 h -3.717 v 6.148 h 4.368 v 5.612 H 116.83 Z"
         id="path2541" />
      <path
         fill="#4a2469"
         d="m 132.965,100.832 h 4.47 c 2.886,0 4.836,0.161 5.854,0.483 1.018,0.324 1.791,0.854 2.32,1.592 0.529,0.738 0.86,1.56 0.994,2.466 0.132,0.905 0.198,2.684 0.198,5.336 v 9.809 c 0,2.516 -0.097,4.195 -0.291,5.043 -0.194,0.849 -0.533,1.512 -1.015,1.99 -0.482,0.479 -1.079,0.813 -1.788,1.004 -0.709,0.189 -1.778,0.284 -3.207,0.284 h -7.535 z m 5.97,4.782 v 18.442 c 0.864,0 1.397,-0.211 1.598,-0.633 0.199,-0.421 0.299,-1.566 0.299,-3.437 v -10.892 c 0,-1.271 -0.033,-2.084 -0.1,-2.441 -0.067,-0.357 -0.219,-0.621 -0.456,-0.789 -0.238,-0.165 -0.686,-0.25 -1.341,-0.25 z"
         id="path2543" />
      <path
         fill="#4a2469"
         d="m 20.979,146.977 v 28.009 h -5.217 l -0.009,-18.909 -2.067,18.909 H 9.969 L 7.783,156.492 7.775,174.986 H 2.557 v -28.009 h 7.725 c 0.228,1.688 0.464,3.676 0.709,5.959 l 0.847,7.119 1.359,-13.078 z"
         id="path2545" />
      <path
         fill="#4a2469"
         d="m 41.391,163.386 c 0,2.813 -0.054,4.805 -0.163,5.976 -0.108,1.169 -0.449,2.239 -1.021,3.207 -0.571,0.969 -1.345,1.712 -2.318,2.231 -0.975,0.519 -2.109,0.778 -3.405,0.778 -1.229,0 -2.333,-0.245 -3.312,-0.736 -0.979,-0.489 -1.766,-1.223 -2.362,-2.204 -0.595,-0.98 -0.95,-2.046 -1.063,-3.199 -0.113,-1.154 -0.17,-3.171 -0.17,-6.053 v -4.791 c 0,-2.813 0.054,-4.804 0.162,-5.974 0.11,-1.171 0.449,-2.239 1.022,-3.209 0.572,-0.968 1.346,-1.712 2.318,-2.23 0.975,-0.52 2.109,-0.778 3.404,-0.778 1.23,0 2.335,0.246 3.313,0.735 0.978,0.49 1.765,1.226 2.361,2.205 0.596,0.979 0.95,2.046 1.063,3.199 0.113,1.152 0.17,3.17 0.17,6.052 v 4.791 z m -5.969,-9.197 c 0,-1.302 -0.06,-2.135 -0.178,-2.497 -0.119,-0.363 -0.363,-0.545 -0.732,-0.545 -0.313,0 -0.552,0.147 -0.719,0.44 -0.166,0.294 -0.249,1.161 -0.249,2.602 v 13.066 c 0,1.625 0.055,2.627 0.163,3.007 0.109,0.382 0.363,0.572 0.762,0.572 0.408,0 0.669,-0.221 0.783,-0.658 0.112,-0.437 0.17,-1.479 0.17,-3.128 z"
         id="path2547" />
      <path
         fill="#4a2469"
         d="m 47.959,146.977 h 4.47 c 2.886,0 4.837,0.162 5.854,0.484 1.018,0.324 1.791,0.854 2.32,1.593 0.529,0.737 0.86,1.559 0.993,2.464 0.134,0.906 0.199,2.685 0.199,5.337 v 9.809 c 0,2.516 -0.097,4.196 -0.291,5.044 -0.193,0.848 -0.532,1.509 -1.015,1.988 -0.482,0.479 -1.078,0.813 -1.788,1.003 -0.709,0.19 -1.778,0.287 -3.207,0.287 h -7.535 z m 5.97,4.783 v 18.442 c 0.865,0 1.397,-0.211 1.597,-0.633 0.2,-0.42 0.3,-1.566 0.3,-3.438 V 155.24 c 0,-1.27 -0.033,-2.083 -0.1,-2.441 -0.067,-0.358 -0.218,-0.62 -0.457,-0.788 -0.238,-0.167 -0.684,-0.251 -1.34,-0.251 z"
         id="path2549" />
      <path
         fill="#4a2469"
         d="m 68.369,146.977 h 12.072 v 5.613 h -4.824 v 5.297 h 4.512 v 5.337 h -4.512 v 6.147 h 5.303 v 5.614 H 68.369 Z"
         id="path2551" />
      <path
         fill="#4a2469"
         d="m 92.532,146.977 v 22.395 h 4.715 v 5.614 H 84.795 v -28.009 z"
         id="path2553" />
      <path
         fill="#4a2469"
         d="m 106.169,146.977 v 28.009 h -5.97 v -28.009 z"
         id="path2555" />
      <path
         fill="#4a2469"
         d="m 126.245,146.977 v 28.009 h -5.238 l -3.103,-12.733 v 12.733 h -4.981 v -28.009 h 5.001 l 3.341,12.612 v -12.612 z"
         id="path2557" />
      <path
         fill="#4a2469"
         d="m 146.705,157.294 h -5.969 v -2.538 c 0,-1.6 -0.058,-2.602 -0.17,-3.005 -0.113,-0.402 -0.381,-0.604 -0.804,-0.604 -0.366,0 -0.615,0.173 -0.747,0.519 -0.132,0.346 -0.197,1.233 -0.197,2.662 v 13.43 c 0,1.256 0.065,2.083 0.196,2.479 0.132,0.397 0.395,0.599 0.789,0.599 0.431,0 0.724,-0.226 0.877,-0.675 0.155,-0.45 0.232,-1.325 0.232,-2.629 v -3.319 h -1.186 v -4.25 h 6.978 v 15.023 h -3.765 l -0.555,-2.007 c -0.406,0.865 -0.917,1.515 -1.535,1.947 -0.617,0.435 -1.347,0.652 -2.186,0.652 -1,0 -1.938,-0.296 -2.81,-0.893 -0.872,-0.593 -1.535,-1.326 -1.987,-2.203 -0.453,-0.878 -0.735,-1.796 -0.85,-2.758 -0.112,-0.963 -0.17,-2.408 -0.17,-4.333 v -8.319 c 0,-2.673 0.118,-4.615 0.354,-5.826 0.236,-1.211 0.914,-2.321 2.034,-3.329 1.119,-1.009 2.566,-1.514 4.342,-1.514 1.748,0 3.196,0.438 4.349,1.313 1.152,0.878 1.903,1.918 2.252,3.121 0.351,1.206 0.525,2.954 0.525,5.247 v 1.21 z"
         id="path2559" />
      <path
         fill="#4a2469"
         d="m 11.112,192.022 v 22.395 h 4.833 v 5.613 H 3.177 v -28.008 z"
         id="path2561" />
      <path
         fill="#4a2469"
         d="m 31.58,191.705 3.424,28.009 H 28.9 l -0.318,-5.04 h -2.128 l -0.349,5.04 h -6.183 l 3.048,-28.009 z m -3.151,18.008 c -0.297,-3.168 -0.6,-7.089 -0.907,-11.767 -0.593,5.369 -0.968,9.29 -1.127,11.767 z"
         id="path2563" />
      <path
         fill="#4a2469"
         d="m 53.164,192.022 v 28.008 h -5.983 l -3.545,-12.734 v 12.734 h -5.69 v -28.008 h 5.712 l 3.817,12.61 v -12.61 z"
         id="path2565" />
      <path
         fill="#4a2469"
         d="m 73.392,202.34 h -6.785 v -2.54 c 0,-1.599 -0.064,-2.599 -0.193,-3.005 -0.128,-0.402 -0.434,-0.603 -0.913,-0.603 -0.417,0 -0.699,0.173 -0.85,0.519 -0.149,0.347 -0.225,1.233 -0.225,2.661 v 13.431 c 0,1.255 0.075,2.083 0.225,2.479 0.147,0.397 0.446,0.599 0.895,0.599 0.49,0 0.823,-0.226 1,-0.675 0.175,-0.45 0.264,-1.324 0.264,-2.63 v -3.317 h -1.35 v -4.249 h 7.932 v 15.021 h -4.279 l -0.631,-2.007 c -0.461,0.865 -1.043,1.515 -1.744,1.947 -0.704,0.435 -1.532,0.652 -2.487,0.652 -1.136,0 -2.199,-0.296 -3.192,-0.893 -0.992,-0.593 -1.745,-1.326 -2.26,-2.203 -0.515,-0.877 -0.837,-1.796 -0.965,-2.757 -0.13,-0.964 -0.193,-2.41 -0.193,-4.334 v -8.318 c 0,-2.674 0.133,-4.616 0.401,-5.827 0.269,-1.21 1.04,-2.32 2.313,-3.33 1.272,-1.009 2.917,-1.512 4.937,-1.512 1.986,0 3.636,0.437 4.945,1.314 1.311,0.874 2.163,1.914 2.561,3.12 0.397,1.203 0.596,2.952 0.596,5.246 v 1.211 z"
         id="path2567" />
      <path
         fill="#4a2469"
         d="m 92.757,192.022 v 18.721 c 0,2.122 -0.063,3.614 -0.186,4.472 -0.124,0.859 -0.49,1.741 -1.099,2.647 -0.609,0.905 -1.411,1.593 -2.405,2.059 -0.997,0.468 -2.17,0.702 -3.521,0.702 -1.496,0 -2.817,-0.276 -3.962,-0.83 -1.146,-0.553 -2.002,-1.275 -2.568,-2.164 -0.569,-0.888 -0.904,-1.823 -1.008,-2.812 -0.103,-0.986 -0.153,-3.06 -0.153,-6.22 v -16.575 h 6.522 v 21.001 c 0,1.223 0.058,2.006 0.178,2.344 0.116,0.342 0.354,0.513 0.713,0.513 0.409,0 0.673,-0.188 0.789,-0.564 0.117,-0.372 0.178,-1.26 0.178,-2.655 v -20.638 h 6.522 z"
         id="path2569" />
      <path
         fill="#4a2469"
         d="m 108.235,192.022 3.424,28.008 h -6.104 l -0.319,-5.04 h -2.128 l -0.349,5.04 h -6.182 l 3.048,-28.008 z m -3.15,18.006 c -0.298,-3.167 -0.6,-7.089 -0.908,-11.765 -0.593,5.368 -0.969,9.29 -1.126,11.765 z"
         id="path2571" />
      <path
         fill="#4a2469"
         d="m 130.512,202.34 h -6.65 v -2.54 c 0,-1.599 -0.063,-2.599 -0.188,-3.005 -0.126,-0.402 -0.423,-0.603 -0.896,-0.603 -0.407,0 -0.686,0.173 -0.832,0.519 -0.146,0.347 -0.22,1.233 -0.22,2.661 v 13.431 c 0,1.255 0.073,2.083 0.219,2.479 0.146,0.397 0.438,0.599 0.878,0.599 0.48,0 0.807,-0.226 0.979,-0.675 0.173,-0.45 0.259,-1.324 0.259,-2.63 v -3.317 h -1.321 v -4.249 h 7.773 v 15.021 h -4.194 l -0.617,-2.007 c -0.452,0.865 -1.022,1.515 -1.711,1.947 -0.688,0.435 -1.5,0.652 -2.435,0.652 -1.114,0 -2.158,-0.296 -3.129,-0.893 -0.974,-0.593 -1.712,-1.326 -2.216,-2.203 -0.505,-0.877 -0.82,-1.796 -0.946,-2.757 -0.125,-0.964 -0.188,-2.41 -0.188,-4.334 v -8.318 c 0,-2.674 0.132,-4.616 0.396,-5.827 0.262,-1.21 1.017,-2.32 2.264,-3.33 1.247,-1.009 2.86,-1.512 4.838,-1.512 1.947,0 3.562,0.437 4.846,1.314 1.284,0.874 2.12,1.914 2.51,3.12 0.39,1.203 0.584,2.952 0.584,5.246 v 1.211 z"
         id="path2573" />
      <path
         fill="#4a2469"
         d="m 134.736,192.022 h 12.071 v 5.612 h -4.823 v 5.299 h 4.512 v 5.336 h -4.512 v 6.147 h 5.303 v 5.613 h -12.551 z"
         id="path2575" />
      <g
         id="g2579">
        <path
           fill="#6d6e71"
           d="m 393.104,167.064 c 0,4.471 -3.509,7.979 -8.076,7.979 -4.519,0 -8.123,-3.509 -8.123,-7.979 0,-4.375 3.604,-7.884 8.123,-7.884 4.568,0.001 8.076,3.509 8.076,7.884 z m -14.18,0 c 0,3.509 2.596,6.298 6.153,6.298 3.461,0 6.009,-2.789 6.009,-6.25 0,-3.51 -2.548,-6.346 -6.058,-6.346 -3.508,0.001 -6.104,2.837 -6.104,6.298 z m 4.855,4.134 h -1.827 v -7.883 c 0.722,-0.146 1.731,-0.241 3.029,-0.241 1.489,0 2.163,0.241 2.739,0.577 0.433,0.336 0.769,0.961 0.769,1.73 0,0.864 -0.672,1.538 -1.634,1.827 v 0.096 c 0.77,0.289 1.202,0.864 1.442,1.923 0.24,1.202 0.385,1.683 0.576,1.971 h -1.97 c -0.241,-0.288 -0.385,-1.01 -0.626,-1.923 -0.144,-0.865 -0.625,-1.25 -1.635,-1.25 h -0.864 v 3.173 z m 0.048,-4.47 h 0.865 c 1.01,0 1.827,-0.336 1.827,-1.153 0,-0.721 -0.528,-1.202 -1.683,-1.202 -0.481,0 -0.817,0.048 -1.01,0.097 v 2.258 z"
           id="path2577" />
      </g>
      <g
         id="g2585">
        <path
           fill="#4a2469"
           d="m 156.248,210.816 h -3.273 v -1.182 h 7.967 v 1.182 h -3.289 v 9.577 h -1.404 v -9.577 z"
           id="path2581" />
        <path
           fill="#4a2469"
           d="m 171.209,215.668 c -0.08,-1.5 -0.176,-3.303 -0.159,-4.645 h -0.049 c -0.367,1.261 -0.814,2.602 -1.355,4.086 l -1.9,5.221 h -1.053 l -1.741,-5.124 c -0.511,-1.517 -0.941,-2.906 -1.245,-4.183 h -0.032 c -0.03,1.342 -0.11,3.145 -0.207,4.758 l -0.288,4.612 h -1.324 l 0.75,-10.759 h 1.772 l 1.835,5.204 c 0.448,1.323 0.814,2.505 1.086,3.623 h 0.048 c 0.271,-1.085 0.654,-2.267 1.134,-3.623 l 1.916,-5.204 h 1.771 l 0.671,10.759 h -1.356 z"
           id="path2583" />
      </g>
    </g>
  </g>
</svg>
